<?xml version="1.0" encoding="utf-8"?>
<!-- Generator: Adobe Illustrator 16.0.0, SVG Export Plug-In . SVG Version: 6.00 Build 0)  -->
<!DOCTYPE svg PUBLIC "-//W3C//DTD SVG 1.1//EN" "http://www.w3.org/Graphics/SVG/1.1/DTD/svg11.dtd">
<svg version="1.1" id="Layer_1" xmlns="http://www.w3.org/2000/svg" xmlns:xlink="http://www.w3.org/1999/xlink" x="0px" y="0px"
	 width="400px" height="500px" viewBox="-36.667 -68 400 500" enable-background="new -36.667 -68 400 500" xml:space="preserve">
<g id="Layer_06">
	
		<line fill="none" stroke="#000000" stroke-linecap="round" stroke-linejoin="round" x1="165.344" y1="354.955" x2="232.888" y2="315.959"/>
	
		<line fill="none" stroke="#000000" stroke-linecap="round" stroke-linejoin="round" x1="165.344" y1="103.038" x2="240.852" y2="59.443"/>
	
		<line fill="none" stroke="#000000" stroke-linecap="round" stroke-linejoin="round" x1="165.344" y1="364.153" x2="240.852" y2="320.559"/>
</g>
<g id="Make2D::visible::lines">
	
		<line fill="none" stroke="#000000" stroke-linecap="round" stroke-linejoin="round" x1="28.191" y1="294.163" x2="28.191" y2="33.047"/>
	
		<line fill="none" stroke="#000000" stroke-linecap="round" stroke-linejoin="round" x1="28.191" y1="21.695" x2="157.381" y2="96.283"/>
	
		<line fill="none" stroke="#000000" stroke-linecap="round" stroke-linejoin="round" x1="157.381" y1="107.636" x2="157.381" y2="96.283"/>
	
		<line fill="none" stroke="#000000" stroke-linecap="round" stroke-linejoin="round" x1="157.381" y1="-52.893" x2="28.191" y2="21.695"/>
	
		<line fill="none" stroke="#000000" stroke-linecap="round" stroke-linejoin="round" x1="28.191" y1="33.047" x2="28.191" y2="21.695"/>
	
		<line fill="none" stroke="#000000" stroke-linecap="round" stroke-linejoin="round" x1="286.57" y1="305.516" x2="286.57" y2="294.163"/>
	
		<line fill="none" stroke="#000000" stroke-linecap="round" stroke-linejoin="round" x1="157.381" y1="380.102" x2="286.57" y2="305.516"/>
	
		<line fill="none" stroke="#000000" stroke-linecap="round" stroke-linejoin="round" x1="157.381" y1="380.102" x2="157.381" y2="368.751"/>
	
		<line fill="none" stroke="#000000" stroke-linecap="round" stroke-linejoin="round" x1="28.191" y1="305.516" x2="157.381" y2="380.102"/>
	
		<line fill="none" stroke="#000000" stroke-linecap="round" stroke-linejoin="round" x1="28.191" y1="305.516" x2="28.191" y2="294.163"/>
	
		<line fill="none" stroke="#000000" stroke-linecap="round" stroke-linejoin="round" x1="207.719" y1="257.834" x2="232.888" y2="272.364"/>
	
		<line fill="none" stroke="#000000" stroke-linecap="round" stroke-linejoin="round" x1="207.719" y1="178.364" x2="232.888" y2="192.896"/>
	
		<line fill="none" stroke="#000000" stroke-linecap="round" stroke-linejoin="round" x1="207.719" y1="178.364" x2="207.719" y2="78.573"/>
	
		<line fill="none" stroke="#000000" stroke-linecap="round" stroke-linejoin="round" x1="182.549" y1="163.832" x2="182.549" y2="93.104"/>
	
		<line fill="none" stroke="#000000" stroke-linecap="round" stroke-linejoin="round" x1="165.344" y1="153.899" x2="182.549" y2="163.832"/>
	
		<line fill="none" stroke="#000000" stroke-linecap="round" stroke-linejoin="round" x1="209.785" y1="77.38" x2="232.888" y2="90.72"/>
	
		<line fill="none" stroke="#000000" stroke-linecap="round" stroke-linejoin="round" x1="207.719" y1="178.364" x2="182.549" y2="163.832"/>
	
		<line fill="none" stroke="#000000" stroke-linecap="round" stroke-linejoin="round" x1="165.344" y1="202.828" x2="207.719" y2="178.364"/>
	
		<line fill="none" stroke="#000000" stroke-linecap="round" stroke-linejoin="round" x1="207.719" y1="257.834" x2="207.719" y2="178.364"/>
	
		<line fill="none" stroke="#000000" stroke-linecap="round" stroke-linejoin="round" x1="165.344" y1="282.297" x2="207.719" y2="257.834"/>
	
		<line fill="none" stroke="#000000" stroke-linecap="round" stroke-linejoin="round" x1="157.381" y1="368.751" x2="157.381" y2="107.636"/>
	
		<line fill="none" stroke="#000000" stroke-linecap="round" stroke-linejoin="round" x1="165.344" y1="364.153" x2="165.344" y2="103.038"/>
	
		<line fill="none" stroke="#000000" stroke-linecap="round" stroke-linejoin="round" x1="240.852" y1="241.088" x2="240.852" y2="197.494"/>
	
		<line fill="none" stroke="#000000" stroke-linecap="round" stroke-linejoin="round" x1="240.852" y1="138.913" x2="240.852" y2="59.443"/>
	
		<line fill="none" stroke="#000000" stroke-linecap="round" stroke-linejoin="round" x1="232.888" y1="134.315" x2="232.888" y2="64.041"/>
	
		<line fill="none" stroke="#000000" stroke-linecap="round" stroke-linejoin="round" x1="240.852" y1="197.494" x2="240.852" y2="138.913"/>
	
		<line fill="none" stroke="#000000" stroke-linecap="round" stroke-linejoin="round" x1="232.888" y1="236.49" x2="232.888" y2="134.315"/>
	
		<line fill="none" stroke="#000000" stroke-linecap="round" stroke-linejoin="round" x1="240.852" y1="320.559" x2="240.852" y2="241.088"/>
	
		<line fill="none" stroke="#000000" stroke-linecap="round" stroke-linejoin="round" x1="232.888" y1="315.959" x2="240.852" y2="320.559"/>
	
		<line fill="none" stroke="#000000" stroke-linecap="round" stroke-linejoin="round" x1="232.888" y1="315.959" x2="232.888" y2="236.49"/>
	
		<line fill="none" stroke="#000000" stroke-linecap="round" stroke-linejoin="round" x1="286.57" y1="294.163" x2="286.57" y2="33.047"/>
	
		<line fill="none" stroke="#000000" stroke-linecap="round" stroke-linejoin="round" x1="286.57" y1="21.695" x2="157.381" y2="-52.893"/>
	
		<line fill="none" stroke="#000000" stroke-linecap="round" stroke-linejoin="round" x1="157.381" y1="96.283" x2="286.57" y2="21.695"/>
	
		<line fill="none" stroke="#000000" stroke-linecap="round" stroke-linejoin="round" x1="286.57" y1="33.047" x2="286.57" y2="21.695"/>
</g>
<g id="Make2D::Annotation">
	<g>
		<text transform="matrix(1 0 0 1 20.1831 379.7773)" font-family="'ArialMT'" font-size="14">Diepte</text>
	</g>
	
		<line fill="none" stroke="#000000" stroke-linecap="round" stroke-linejoin="round" x1="132.802" y1="394.295" x2="96.916" y2="415.014"/>
	
		<line fill="none" stroke="#000000" stroke-linecap="round" stroke-linejoin="round" x1="3.611" y1="319.706" x2="-32.275" y2="340.425"/>
	<g>
		<text transform="matrix(1 0 0 1 264.4058 379.209)" font-family="'ArialMT'" font-size="14">Breedte</text>
	</g>
	<polygon points="214.404,413.027 232.839,406.639 225.464,402.383 	"/>
	<polygon points="343.595,338.438 325.16,344.823 332.534,349.082 	"/>
	
		<line fill="none" stroke="#000000" stroke-linecap="round" stroke-linejoin="round" x1="261.083" y1="386.075" x2="214.404" y2="413.027"/>
	
		<line fill="none" stroke="#000000" stroke-linecap="round" stroke-linejoin="round" x1="343.595" y1="338.438" x2="296.191" y2="365.807"/>
	
		<line fill="none" stroke="#000000" stroke-linecap="round" stroke-linejoin="round" x1="311.151" y1="319.706" x2="346.053" y2="339.858"/>
	
		<line fill="none" stroke="#000000" stroke-linecap="round" stroke-linejoin="round" x1="181.959" y1="394.295" x2="216.863" y2="414.444"/>
	<g>
		<text transform="matrix(1 0 0 1 317.0005 128.5327)" font-family="'ArialMT'" font-size="14">Hoogte</text>
	</g>
	<polygon points="343.595,271.621 347.282,252.464 339.907,256.72 	"/>
	<polygon points="343.595,-11.228 339.907,7.931 347.282,3.673 	"/>
	
		<line fill="none" stroke="#000000" stroke-linecap="round" stroke-linejoin="round" x1="343.595" y1="141.31" x2="343.595" y2="271.621"/>
	
		<line fill="none" stroke="#000000" stroke-linecap="round" stroke-linejoin="round" x1="343.595" y1="-11.228" x2="343.595" y2="107.636"/>
	
		<line fill="none" stroke="#000000" stroke-linecap="round" stroke-linejoin="round" x1="311.151" y1="7.504" x2="346.053" y2="-12.646"/>
	
		<line fill="none" stroke="#000000" stroke-linecap="round" stroke-linejoin="round" x1="311.151" y1="290.354" x2="346.053" y2="270.202"/>
	
		<line fill="none" stroke="#000000" stroke-linecap="round" stroke-linejoin="round" x1="52.696" y1="386.644" x2="99.373" y2="413.592"/>
	<polygon points="-29.816,339.005 -18.756,349.648 -11.382,345.393 	"/>
	<polygon points="99.373,413.592 88.312,402.951 80.939,407.209 	"/>
	
		<line fill="none" stroke="#000000" stroke-linecap="round" stroke-linejoin="round" x1="-29.816" y1="339.005" x2="17.587" y2="366.374"/>
</g>
</svg>
